<svg enable-background="new 0 0 39 44" height="44" viewBox="0 0 39 44" width="39" xmlns="http://www.w3.org/2000/svg"><path d="m0 0h39v44h-39z" fill="none"/><path d="m10.0283 25.291h-8.9531v-.8145h3.4102v-3.498h1.0136v3.498h4.5293zm-7.9687-6.7207v-.8262h6.8379c.0352 2.0801-.0938 4.0723-.3984 5.4727l-.9551-.1172c.2402-1.043.3516-2.6426.3457-3.5742v-.9551zm9.0644 4.0664-.5684-.7969c1.8223-.6621 3.1699-2.0625 3.2812-3.5508h-2.7832v-.8145h3.8379c.0177 2.4903-1.5233 4.2189-3.7675 5.1622zm7.7989 4.0371h-1.0079v-2.7656h-5.6777v-.8262h6.6855v3.5918zm-3.0997-4.2129v-5.5312h.9551v2.291h1.1836v-2.4668h.9551v5.8184h-.9551v-2.5254h-1.1836v2.4141h-.9551zm10.2481 1.0664-.5625.8027c-.9434-.5391-2.1328-1.8574-2.4316-2.9297-.3047 1.166-1.3711 2.5254-2.4785 3.1699l-.5977-.7792c1.5879-.9375 2.5371-2.543 2.5371-4.5234v-.668h-2.1211v-.8555h5.2852v.8555h-2.1094v.6328c0 1.9746 1.0429 3.5332 2.4785 4.2949zm2.0801 3.1407h-1.0254v-9.9141h1.0254zm1.4004-4.4414-.1348-.8203c2.2031.0059 4.7051-.0645 6.4629-.2754l.082.7617c-.7383.0938-1.623.1641-2.5547.2168v1.8105h-1.0078v-1.7637c-.9844.0411-1.9687.0645-2.8476.0704zm.6621-3.2461c0-1.0781 1.0137-1.8223 2.4668-1.8223 1.459 0 2.4668.7441 2.4668 1.8223 0 1.0723-1.0078 1.8105-2.4668 1.8105-1.4532 0-2.4668-.7324-2.4668-1.8105zm7.7109 7.4062h-7.1543v-2.8184h1.0195v2.0098h6.1348zm-6.6914-7.4062c0 .6152.6035 1.0371 1.4473 1.0371.8496 0 1.4473-.4219 1.4473-1.0371s-.5977-1.0547-1.4473-1.0547c-.8438 0-1.4473.4453-1.4473 1.0547zm5.4668 3.6855v-5.918h1.0078v7.6172h-1.0078v-.9785h-1.9453v-.7207z" fill="#fff"/></svg>