<svg enable-background="new 0 0 30 44" height="44" viewBox="0 0 30 44" width="30" xmlns="http://www.w3.org/2000/svg"><path d="m0 0h30v44h-30z" fill="none"/><path d="m1.5818 25.3223v-.8262h8.9531v.8262zm8.584-3.75-.4629.8203c-1.4766-.3867-3.1816-1.4707-3.6562-2.8242-.4746 1.3535-2.1445 2.4375-3.6445 2.8242l-.4746-.8203c1.7285-.334 3.5801-1.6582 3.5801-3.3691v-.6914h1.0781v.6914c-.0001 1.7109 1.8515 3.0234 3.58 3.3691zm9.7241 3.8028h-8.9531v-.8145h3.9668v-1.8984h-2.8125v-5.1621h6.7031v.8203h-5.6953v1.3477h5.4727v.8145h-5.4727v1.3711h5.748v.8086h-2.9297v1.8984h3.9727zm3.0088-.9317c-1.4824 0-2.4668-1.418-2.4668-3.4863 0-2.0801.9844-3.4922 2.4668-3.4922 1.5 0 2.4668 1.4062 2.4668 3.4922 0 2.0567-.9668 3.4863-2.4668 3.4863zm0-.8906c.8438 0 1.5117-.9492 1.5117-2.5957 0-1.6523-.668-2.6016-1.5117-2.6016-.8262 0-1.4824.9492-1.4824 2.6016 0 1.6465.6562 2.5957 1.4824 2.5957zm4.4941 3.1172v-5.3379h-1.6641v-.873h1.6641v-3.7148h1.0254v9.9257z" fill="#fff"/></svg>