<svg height="44" viewBox="0 0 42 44" width="42" xmlns="http://www.w3.org/2000/svg"><path d="m0 0h42v44h-42z" fill="none"/><path d="m3.2656 26v-7.5059h-2.7246v-.9492h6.5039v.9492h-2.7249v7.5059zm7.8516 0-3.1172-8.4551h1.1074l2.4844 7.09h.0937l2.4844-7.09h1.1074l-3.1173 8.4551zm8.7715-4.6172v-3.8789h4.6054v3.8789zm8.0566 4.67-.3984.8028a4.6562 4.6562 0 0 1 -3.334-1.752 4.5742 4.5742 0 0 1 -3.3516 1.7344l-.3984-.791c1.5176-.1348 3.0176-.8379 3.2168-1.7813h-2.8945v-.7793h6.8906v.7793h-2.93c.2054.955 1.7522 1.6288 3.1995 1.787zm-7.0605-7.7578v2.3028h2.6015v-2.3029zm4.8457 3.82v.7383h-3.0405v-.7383zm.7031.1817v-5.543h1.0254v5.543zm14.7187 1.0722h-8.9648v-.7968h3.9725v-.5621c-1.5762-.0938-2.543-.6153-2.543-1.3594 0-.832 1.1777-1.3887 3.0586-1.3887 1.8867 0 3.0527.5567 3.0527 1.3887 0 .75-.9609 1.2715-2.5547 1.3594v.5625h3.9785zm-8.414-4.4824v-.7676h7.8281v.7676zm7.2422 5.0742v2.6368h-6.6035v-2.6366zm-1.0137 1.8985v-1.1365h-4.5645v1.1367zm-2.291-4.5469c1.1719 0 2.01-.2344 2.01-.6621 0-.4336-.8378-.6621-2.01-.6621-1.1778 0-2.0332.2285-2.0332.6621 0 .4221.8554.6623 2.0332.6623zm-1.74-3.7383v-.75h3.44v.75z" fill="#fff"/></svg>