<svg height="43" viewBox="0 0 41 43" width="41" xmlns="http://www.w3.org/2000/svg"><path d="m0 0h41v43h-41z" fill="none"/><path d="m1.3735 26.0454v-1.17h12.6836v1.17zm12.1607-5.3125-.6558 1.1621c-2.0918-.5478-4.5073-2.0835-5.18-4.001-.6723 1.9175-3.0381 3.4532-5.1631 4.001l-.6723-1.1621c2.449-.4729 5.0721-2.3491 5.0721-4.7729v-.98h1.5273v.98c0 2.4238 2.623 4.2832 5.0718 4.7729zm13.7758 5.3871h-12.684v-1.1537h5.62v-2.6894h-3.9848v-7.313h9.4961v1.1621h-8.0683v1.9092h7.7529v1.1538h-7.7529v1.9423h8.143v1.1456h-4.15v2.6894h5.628zm4.2627-1.32c-2.1 0-3.4947-2.0088-3.4947-4.939 0-2.9467 1.3946-4.9472 3.4947-4.9472 2.125 0 3.4946 1.9921 3.4946 4.9472-.0004 2.9139-1.37 4.939-3.495 4.939zm0-1.2617c1.1953 0 2.1416-1.3448 2.1416-3.6773 0-2.3408-.9463-3.6855-2.1416-3.6855-1.17 0-2.1 1.3447-2.1 3.6855-.0005 2.3328.9292 3.6776 2.0996 3.6776zm6.3667 4.416v-7.562h-2.3579v-1.2365h2.3575v-5.2627h1.4526v14.0615z" fill="#fff"/></svg>