<svg height="43" viewBox="0 0 113 43" width="113" xmlns="http://www.w3.org/2000/svg"><path d="m0 0h113v43h-113z" fill="none"/><path d="m10.625 23.5718h-4.765l-1.2033 3.4282h-1.5688l4.416-11.978h1.4775l4.4161 11.978h-1.5689zm-4.325-1.27h3.8848l-1.876-5.3457h-.1325zm16.9629.2241c0 2.7973-1.4859 4.6318-3.76 4.6318a3.003 3.003 0 0 1 -2.7973-1.5024h-.1328v4.333h-1.4278v-11.9365h1.3613v1.4941h.1329a3.2257 3.2257 0 0 1 2.8637-1.6519c2.2827 0 3.7603 1.8179 3.7603 4.6319zm-1.4776 0c0-2.0918-.9794-3.3452-2.6147-3.3452-1.6187 0-2.64 1.2866-2.64 3.3452 0 2.05 1.021 3.3452 2.6314 3.3452 1.6442 0 2.6236-1.2534 2.6236-3.3452zm11.667 0c0 2.7973-1.4858 4.6318-3.76 4.6318a3.0033 3.0033 0 0 1 -2.7974-1.5024h-.1328v4.333h-1.4276v-11.9365h1.3613v1.4941h.1328a3.226 3.226 0 0 1 2.8638-1.6519c2.2827 0 3.7602 1.8179 3.7602 4.6319zm-1.4775 0c0-2.0918-.98-3.3452-2.6147-3.3452-1.6187 0-2.64 1.2866-2.64 3.3452 0 2.05 1.021 3.3452 2.6314 3.3452 1.6441 0 2.6236-1.2534 2.6236-3.3452zm3.6318-8.0269h1.4278v12.501h-1.4275zm11.3846 10.1851c-.415 1.5273-1.81 2.4736-3.7685 2.4736-2.482 0-4.0342-1.793-4.0342-4.6235 0-2.814 1.5771-4.64 4.0342-4.64 2.4155 0 3.8847 1.7183 3.8847 4.4991v.5478h-6.4331v.0664c.0747 1.7681 1.0625 2.8887 2.5816 2.8887a2.3181 2.3181 0 0 0 2.3076-1.2119zm-6.3169-2.897h4.9307a2.4086 2.4086 0 0 0 -2.3989-2.6313 2.5489 2.5489 0 0 0 -2.5318 2.6313zm24.8447.1329h-12.6836v-1.1539h5.6363v-1.61h-3.9429v-4.8148h9.3135v1.1538h-7.8858v2.5149h8.002v1.1455h-4.0674v1.61h5.6279zm-1.6435 1.42v4.7065h-1.4277v-3.5533h-8.1929v-1.1538zm2.9845-1.4118-.7388-1.1289a4.8889 4.8889 0 0 0 3.4614-4.54v-.2163h-2.9552v-1.187h7.3213v1.187h-2.8887v.1411a4.6285 4.6285 0 0 0 3.3369 4.2915l-.7886 1.1289a6.1315 6.1315 0 0 1 -3.27-3.0547 6.0352 6.0352 0 0 1 -3.4783 3.3784zm10.7412.8633v4.9639h-9.1974v-4.9639zm-1.4527 3.835v-2.731h-6.292v2.731zm1.4527-4.5157h-1.4528v-3.6191h-2.4321v-1.1538h2.4321v-3.4365h1.4527zm13.39 1.4195-.8057 1.0297a6.8138 6.8138 0 0 1 -2.7143-3.6773 6.9235 6.9235 0 0 1 -2.9136 4.0259l-.7886-.9961a6.6765 6.6765 0 0 0 2.9966-6.06v-1.2119h-2.5483v-1.1455h6.3335v1.1455h-2.3908v1.2119c0 2.6231.8385 4.441 2.8307 5.6775zm2.042-9.3218v13.0322h-1.3286v-7.1553h-2.0669v-1.2617h2.0669v-4.6152zm2.8389 13.7378h-1.3369v-14.0449h1.3364zm14.04-6.458h-12.7v-1.1455h5.1216v-2.7728h1.4443v2.7725h6.1343zm-1.5273 3.7517c0 1.5689-1.8594 2.6314-4.8394 2.6314-2.9966 0-4.8808-1.0625-4.8808-2.6314 0-1.5605 1.8842-2.6147 4.8808-2.6147 2.98.0002 4.8394 1.0547 4.8394 2.6147zm-1.5689-9.6372h-8.0434v-1.137h9.4629a19.8449 19.8449 0 0 1 -.4234 4.9058l-1.3779-.1743a14.3119 14.3119 0 0 0 .3818-3.5943zm.1 9.6455c0-.9214-1.3862-1.4609-3.37-1.4609-2.0005 0-3.395.54-3.395 1.4609s1.3945 1.461 3.395 1.461c1.9834.0007 3.3696-.5393 3.3696-1.4608z" fill="#fff"/></svg>