<svg enable-background="new 0 0 40 44" height="44" viewBox="0 0 40 44" width="40" xmlns="http://www.w3.org/2000/svg"><path d="m0 0h40v44h-40z" fill="none"/><path d="m4.8467 22.0566c-1.3887 0-2.2559-1.0312-2.2559-2.3145 0-1.2891.8672-2.3086 2.2559-2.3086 1.4238 0 2.2676 1.0195 2.2676 2.3086 0 1.2833-.8438 2.3145-2.2676 2.3145zm0-.8671c.8203 0 1.3066-.6562 1.3066-1.4473 0-.8145-.4863-1.4414-1.3066-1.4414-.7969 0-1.2832.627-1.2832 1.4414 0 .791.4863 1.4473 1.2832 1.4473zm6.0117 5.4843h-1.0078v-2.7305h-5.8125v-.8145h6.8203zm-3.0586-4.1543v-5.5898h.9434v2.332h1.1543v-2.5078h.9551v5.8477h-.9551v-2.5196h-1.1543v2.4375zm9.0738.92-.6035.791c-.8262-.5391-1.7051-1.6875-1.9395-2.6836-.2227 1.002-1.002 2.2559-2.0801 2.918l-.5918-.7559c1.3477-.8086 2.1621-2.3496 2.1621-4.418v-1.5527h1.0137v1.5352c0 2.121.8672 3.4335 2.0391 4.166zm.4511 2.7363v-5.1504h-1.5352v-.8613h1.5352v-3.1992h.9375v9.2109zm1.9512.4863v-9.9082h.9609v9.9082zm7.8779-3.1465-.5859.7617c-.9961-.5508-2.1562-1.793-2.4375-2.8594-.2695 1.1367-1.3594 2.4609-2.4434 3.1055l-.627-.7383c1.5996-.9551 2.5312-2.6074 2.5312-4.5117v-1.6582h1.0488v1.623c.0002 1.9395 1.0607 3.4923 2.5138 4.2774zm1.166 3.1524v-5.5488h-2.1504v-.8613h2.1504v-3.5039h1.0195v9.9141h-1.0195zm3.8409-5.5078v2.2734c1.248.0234 3.2988-.0527 4.5117-.3047l.1113.8203c-1.4941.293-3.6152.3398-5.6426.3281v-3.9258h3.4277v-1.8867h-3.4453v-.8086h4.4648v3.5039h-3.4276zm5.4961 5.5078v-9.9141h1.0078v9.9141z" fill="#fff"/></svg>