<svg xmlns="http://www.w3.org/2000/svg" width="55" height="43" viewBox="0 0 55 43"><rect width="55" height="43" fill="none"/><path d="M4.7188,21.4136a3.1116,3.1116,0,0,1-3.1959-3.2788,3.1,3.1,0,0,1,3.1959-3.27,3.0859,3.0859,0,0,1,3.2124,3.27A3.0969,3.0969,0,0,1,4.7188,21.4136Zm0-1.2285a1.8786,1.8786,0,0,0,1.851-2.05,1.845,1.845,0,1,0-3.6689,0A1.873,1.873,0,0,0,4.7188,20.1851Zm8.5166,7.77H11.8076V24.0864H3.5732V22.9326h9.6622ZM8.9023,22.0693V14.15h1.3365v3.3037H11.874V13.9014h1.3531v8.2841H11.874V18.6162H10.2388v3.4531Zm12.854,1.3033-.8549,1.1206a7.1258,7.1258,0,0,1-2.7476-3.8018,7.0078,7.0078,0,0,1-2.9468,4.1338l-.8383-1.0708c1.9091-1.1455,3.0629-3.3286,3.0629-6.2588v-2.2h1.4361v2.1748C18.8677,20.4756,20.0962,22.335,21.7563,23.3726Zm.6392,3.8764V19.9526H20.2207v-1.22h2.1748V14.2h1.3281V27.249Zm2.7642.689V13.9014H26.521V27.938ZM36.32,23.4805,35.49,24.56a7.8206,7.8206,0,0,1-3.4531-4.0508,8.0546,8.0546,0,0,1-3.4614,4.3994l-.8882-1.0459a7.29,7.29,0,0,0,3.5859-6.3916V15.1216h1.4859v2.2993A6.8049,6.8049,0,0,0,36.32,23.4805Zm1.6519,4.4658V20.0854H34.9258v-1.22h3.0464V13.9014h1.4443V27.9463Zm5.4414-7.8027v3.2207a34.9116,34.9116,0,0,0,6.3916-.4317l.1577,1.1621a44.8893,44.8893,0,0,1-7.9937.4649V18.998h4.856V16.3252H41.9443V15.18H48.27v4.9639ZM51.2,27.9463V13.9014h1.4277V27.9463Z" fill="#fff"/></svg>