<svg enable-background="new 0 0 80 44" height="44" viewBox="0 0 80 44" width="80" xmlns="http://www.w3.org/2000/svg"><path d="m0 0h80v44h-80z" fill="none"/><path d="m7.0176 23.5801h-3.3633l-.8496 2.4199h-1.1074l3.1172-8.4551h1.043l3.1171 8.4551h-1.1074zm-3.0528-.8965h2.7422l-1.3242-3.7734h-.0937zm12.0938.1582c0 1.9746-1.0488 3.2695-2.6543 3.2695-.9023 0-1.6289-.3926-1.9746-1.0605h-.0938v3.0586h-1.0078v-8.4258h.9609v1.0547h.0938c.4043-.7266 1.1602-1.166 2.0215-1.166 1.6113 0 2.6543 1.2832 2.6543 3.2695zm-1.043 0c0-1.4766-.6914-2.3613-1.8457-2.3613-1.1426 0-1.8633.9082-1.8633 2.3613 0 1.4473.7207 2.3613 1.8574 2.3613 1.1602 0 1.8516-.8847 1.8516-2.3613zm8.3555 0c0 1.9746-1.0488 3.2695-2.6543 3.2695-.9023 0-1.6289-.3926-1.9746-1.0605h-.0938v3.0586h-1.0078v-8.4258h.9609v1.0547h.0938c.4043-.7266 1.1602-1.166 2.0215-1.166 1.6113 0 2.6543 1.2832 2.6543 3.2695zm-1.043 0c0-1.4766-.6914-2.3613-1.8457-2.3613-1.1426 0-1.8633.9082-1.8633 2.3613 0 1.4473.7207 2.3613 1.8574 2.3613 1.1602 0 1.8516-.8847 1.8516-2.3613zm2.6836-5.666h1.0078v8.8242h-1.0078zm8.1563 7.1894c-.293 1.0781-1.2773 1.7461-2.6602 1.7461-1.752 0-2.8477-1.2656-2.8477-3.2637 0-1.9863 1.1133-3.2754 2.8477-3.2754 1.7051 0 2.7422 1.2129 2.7422 3.1758v.3867h-4.541v.0469c.0527 1.248.75 2.0391 1.8223 2.0391.8145 0 1.3652-.2988 1.6289-.8555zm-4.459-2.0449h3.4805c-.0234-1.1191-.6914-1.8574-1.6934-1.8574-1.0078 0-1.7109.7383-1.7871 1.8574zm17.7773.0938h-8.9531v-.8145h3.9785v-1.1367h-2.7832v-3.3984h6.5742v.8145h-5.5664v1.7754h5.6484v.8086h-2.8711v1.1367h3.9727zm-1.1601 1.0019v3.3223h-1.0078v-2.5078h-5.7832v-.8145zm2.2265-.9961-.5215-.7969c1.4355-.5449 2.4434-1.6875 2.4434-3.2051v-.1523h-2.0859v-.8379h5.168v.8379h-2.0391v.0996c0 1.5117 1.0723 2.5723 2.3555 3.0293l-.5566.7969c-.9727-.3516-1.9863-1.3242-2.3086-2.1562-.2462.9199-1.3243 1.9336-2.4552 2.3847zm7.5821.6094v3.5039h-6.4922v-3.5039zm-1.0254 2.707v-1.9277h-4.4414v1.9277zm1.0254-3.1875h-1.0254v-2.5547h-1.7168v-.8145h1.7168v-2.4258h1.0254zm9.6914 1.002-.5684.7266c-.8262-.5156-1.6758-1.623-1.916-2.5957-.1992 1.0078-1.0957 2.2617-2.0566 2.8418l-.5566-.7031c1.5-.9902 2.1152-2.4199 2.1152-4.2773v-.8555h-1.7988v-.8086h4.4707v.8086h-1.6875v.8555c-.0001 1.8514.5917 3.1346 1.998 4.0077zm1.4414-6.5801v9.1992h-.9375v-5.0508h-1.459v-.8906h1.459v-3.2578zm2.0039 9.6973h-.9434v-9.9141h.9434zm10.0312-4.5586h-8.9648v-.8086h3.6152v-1.957h1.0195v1.957h4.3301zm-1.0781 2.6484c0 1.1074-1.3125 1.8574-3.416 1.8574-2.1152 0-3.4453-.75-3.4453-1.8574 0-1.1016 1.3301-1.8457 3.4453-1.8457 2.1035 0 3.416.7441 3.416 1.8457zm-1.1074-6.8027h-5.6777v-.8027h6.6797c0 1.7227-.0879 2.5547-.2988 3.4629l-.9727-.123c.1875-.7267.2636-1.4943.2695-2.5372zm.0703 6.8086c0-.6504-.9785-1.0312-2.3789-1.0312-1.4121 0-2.3965.3809-2.3965 1.0312s.9844 1.0312 2.3965 1.0312c1.4004 0 2.3789-.3808 2.3789-1.0312z" fill="#fff"/></svg>