<svg height="43" viewBox="0 0 58 43" width="58" xmlns="http://www.w3.org/2000/svg"><path d="m0 0h58v43h-58z" fill="none"/><path d="m3.94 27v-10.6333h-3.86v-1.3447h9.2141v1.3447h-3.86v10.6333zm10.9532 0-4.416-11.978h1.5689l3.52 10.0439h.1328l3.52-10.0439h1.5688l-4.4169 11.978zm12.0868-6.541v-5.4951h6.5244v5.4951zm11.4136 6.6157-.5645 1.1372c-1.9092-.1909-3.9595-1.2036-4.7231-2.4819-.6807 1.2617-2.8721 2.2993-4.7481 2.457l-.5644-1.1206c2.15-.1909 4.2749-1.187 4.5571-2.5234h-4.1006v-1.104h9.7617v1.104h-4.15c.2899 1.353 2.4813 2.3076 4.5316 2.5317zm-10.0025-10.99v3.2622h3.6856v-3.2624zm6.8648 5.4121v1.0459h-4.3084v-1.0461zm.9961.2573v-7.8527h1.4526v7.8525zm20.5112 1.519h-12.7v-1.1291h5.6279v-.7968c-2.2329-.1328-3.6025-.8716-3.6025-1.9258 0-1.1787 1.6684-1.9673 4.333-1.9673 2.6728 0 4.3247.7886 4.3247 1.9673 0 1.0625-1.3613 1.8013-3.6191 1.9258v.7968h5.6362zm-11.92-6.35v-1.0877h11.09v1.0875zm10.26 7.1884v3.7354h-9.3554v-3.7356zm-1.436 2.6895v-1.611h-6.4672v1.61zm-3.2456-6.4414c1.66 0 2.8472-.3321 2.8472-.938 0-.6143-1.1871-.938-2.8472-.938-1.6685 0-2.88.3237-2.88.938-.0009.5974 1.211.9378 2.8795.9378zm-2.4653-5.2959v-1.0627h4.8725v1.0625z" fill="#fff"/></svg>