<svg height="43" viewBox="0 0 54 43" width="54" xmlns="http://www.w3.org/2000/svg"><path d="m0 0h54v43h-54z" fill="none"/><path d="m14.0571 25.9956h-12.6836v-1.1538h4.8311v-4.9556h1.436v4.9556h6.4165zm-11.289-9.521v-1.17h9.687a36.4246 36.4246 0 0 1 -.5645 7.7529l-1.353-.166a26.04 26.04 0 0 0 .49-5.0635v-1.353zm12.6719 5.7608-.8052-1.129c2.5815-.9379 4.4907-2.9218 4.6484-5.03h-3.9432v-1.154h5.4371c.0247 3.5276-2.1584 5.9765-5.3371 7.313zm11.0483 5.7192h-1.4283v-3.918h-8.0434v-1.17h9.4712zm-4.3911-5.9683v-7.8363h1.3528v3.246h1.6768v-3.4946h1.3532v8.2426h-1.353v-3.5776h-1.677v3.42zm14.3481 1.5108-.7969 1.1372a8.4062 8.4062 0 0 1 -3.4448-4.15 8.27 8.27 0 0 1 -3.5112 4.4907l-.8467-1.104a7.2037 7.2037 0 0 0 3.5943-6.4086v-.9463h-3.0054v-1.2119h7.4873v1.2119h-2.9883v.8965a6.7556 6.7556 0 0 0 3.5112 6.0845zm2.9468 4.4492h-1.4531v-14.0449h1.4526zm1.814-6.292-.191-1.1621a83.7429 83.7429 0 0 0 9.1558-.39l.1162 1.0791c-1.0459.1328-2.2993.2324-3.6191.3071v2.5649h-1.428v-2.4986c-1.3948.0581-2.7893.0913-4.0344.0996zm.938-4.5986c0-1.5274 1.436-2.5816 3.4946-2.5816 2.0669 0 3.4946 1.0542 3.4946 2.5816 0 1.519-1.4277 2.5649-3.4946 2.5649-2.0587 0-3.4951-1.0376-3.4951-2.5649zm10.9233 10.4922h-10.1353v-3.9927h1.4444v2.8471h8.6909zm-9.48-10.4922c0 .8715.855 1.4692 2.05 1.4692 1.2036 0 2.05-.5977 2.05-1.4692s-.8467-1.4942-2.05-1.4942c-1.1945 0-2.0495.6309-2.0495 1.4942zm7.7446 5.2212v-8.3838h1.428v10.791h-1.4275v-1.3862h-2.7558v-1.021z" fill="#fff"/></svg>